<svg version="1.1" id="Layer_1" xmlns="http://www.w3.org/2000/svg" xmlns:xlink="http://www.w3.org/1999/xlink" x="0px" y="0px"
	 width="100%" viewBox="0 0 1024 1024" enable-background="new 0 0 1024 1024" xml:space="preserve">
<path fill="#000000" opacity="1.000000" stroke="none" 
	d="
M434.468658,1025.000000 
	C436.754425,1023.489197 439.895599,1024.420654 442.798828,1023.266052 
	C440.887329,1023.111572 438.975830,1022.957092 436.041260,1022.719971 
	C441.563843,1019.675598 447.637360,1020.984436 452.260040,1017.129150 
	C450.298889,1015.234192 446.678406,1014.582275 448.698822,1011.020874 
	C448.780823,1010.876404 447.645569,1009.868835 446.953552,1009.489136 
	C444.625092,1008.211548 442.309021,1006.871094 439.862976,1005.856628 
	C435.115417,1003.887634 430.306335,1002.299622 426.072784,999.042908 
	C422.170197,996.040710 416.960938,995.790771 412.177032,995.617126 
	C401.123199,995.216064 389.990692,992.893677 379.019226,996.418091 
	C375.956085,997.402100 372.955322,996.636841 370.293640,995.280151 
	C358.617798,989.329041 346.945465,983.383606 334.458588,979.271729 
	C330.828766,978.076538 327.150391,976.868652 323.398346,976.231079 
	C302.552979,972.688721 282.746796,965.846375 263.607971,957.115601 
	C253.445786,952.479736 244.547501,945.565857 235.154556,939.547241 
	C218.332153,928.768066 201.317642,918.287659 184.335815,907.759155 
	C180.914490,905.638062 177.806839,903.221008 174.880661,900.450073 
	C165.694962,891.751770 156.281647,883.293213 147.125732,874.564331 
	C141.356384,869.063965 136.277832,862.890564 130.218979,857.627991 
	C125.651978,853.661194 123.965950,847.611084 123.101204,842.005493 
	C121.713074,833.006958 119.046562,824.463501 115.789833,816.113953 
	C106.769501,792.988159 103.538391,768.825989 101.977226,744.286133 
	C101.086853,730.290222 98.563820,716.553589 94.867828,703.005676 
	C91.537300,690.797424 88.151825,678.560364 88.923569,665.672852 
	C89.166862,661.610046 87.740402,657.769714 86.919434,653.879395 
	C84.869591,644.165649 85.574158,635.052002 91.637154,626.804626 
	C94.693855,622.646667 95.889519,617.855652 96.546051,612.825928 
	C97.687180,604.083557 98.870979,595.343689 100.253021,586.637085 
	C101.020691,581.800903 100.987328,577.071167 100.255409,572.230225 
	C99.406349,566.614624 99.444038,560.872986 100.139015,555.269531 
	C101.254875,546.272705 100.613777,537.361572 100.339417,528.366455 
	C99.893280,513.739441 100.389427,499.096161 102.767845,484.554108 
	C104.511322,473.894104 105.631966,463.128784 106.877136,452.392639 
	C107.300560,448.741699 107.304253,444.921326 105.787712,441.538879 
	C102.183281,433.499664 103.036400,425.295197 104.129951,416.980865 
	C107.084152,394.519958 112.082176,372.410126 115.547867,350.037872 
	C115.776222,348.563721 115.889099,346.851257 116.708313,345.723938 
	C123.327797,336.615143 125.676758,325.459442 131.373703,315.841766 
	C137.562027,305.394592 144.662338,295.431763 150.016205,284.568115 
	C156.762756,270.878571 165.705093,259.017181 176.761749,248.750854 
	C186.254883,239.936295 193.782578,229.627136 201.212891,219.163620 
	C212.330765,203.507172 225.260391,189.594864 240.351242,177.608627 
	C257.965302,163.618271 276.294525,150.657440 295.608337,139.200150 
	C314.932678,127.736595 334.824860,117.261581 355.888062,109.218681 
	C356.975220,108.803551 358.207245,108.502861 359.059906,107.780640 
	C365.645966,102.202118 373.585114,100.635986 381.823151,99.992706 
	C385.238983,99.725975 388.081787,98.297729 389.813782,95.511497 
	C392.571320,91.075569 396.706146,89.504730 401.489838,88.800591 
	C428.183807,84.871391 454.299225,78.195969 480.524811,72.057220 
	C486.716919,70.607803 492.421082,67.961830 497.847626,64.522942 
	C510.798584,56.315697 525.343384,52.873684 540.358582,51.036232 
	C542.010986,50.834026 543.660461,50.598507 545.317566,50.446041 
	C554.166016,49.631912 562.475037,50.531021 569.793091,56.477524 
	C577.330994,62.602722 585.876709,66.846344 595.169739,70.037895 
	C627.293396,81.070335 659.592957,91.724831 691.141174,104.247536 
	C709.543640,111.552200 728.585266,117.084290 746.616760,125.475990 
	C762.942932,133.074005 775.989319,144.402527 787.550232,157.573364 
	C820.974426,195.652084 843.617737,240.054276 861.699707,286.942230 
	C868.516113,304.617615 870.995117,323.205750 872.254333,342.151001 
	C873.233704,356.886230 870.158752,370.959900 868.571106,385.294647 
	C867.115845,398.432922 867.670654,411.520752 868.565308,424.653198 
	C869.323181,435.779480 869.456787,446.905975 872.819275,457.746216 
	C875.257446,465.606384 878.465942,473.115570 882.362244,480.248566 
	C891.992737,497.878906 899.633545,516.261292 905.201111,535.554443 
	C910.384460,553.516235 917.782349,570.644775 925.413635,587.665955 
	C926.355408,589.766724 927.624817,591.869690 929.220642,593.504761 
	C942.706055,607.322205 945.761536,624.341309 943.768372,642.554810 
	C942.030396,658.436340 944.212097,673.775635 948.201782,689.006409 
	C949.306885,693.224976 949.949158,697.421265 950.119263,701.796387 
	C950.545959,712.772705 955.594177,722.640442 958.146484,733.123230 
	C960.479309,742.704834 962.803406,752.201599 960.994080,762.144287 
	C958.851929,773.915771 957.675171,785.935669 951.047180,796.450073 
	C944.961609,806.103821 938.748779,815.331482 927.262390,819.624695 
	C922.469727,821.416016 918.673889,825.374573 915.371704,829.354858 
	C905.381409,841.396729 892.883911,850.443604 880.701050,860.045654 
	C871.550964,867.257324 860.659790,871.263245 851.642090,878.359558 
	C844.386658,884.068909 838.365540,890.878723 833.923401,899.104004 
	C826.233398,913.343323 817.262390,926.258301 804.262329,936.738525 
	C786.983276,950.668152 769.184692,963.589783 750.029480,974.751648 
	C738.580444,981.423157 726.420898,983.884766 713.528625,981.303467 
	C704.665833,979.529053 695.910645,980.421692 687.152710,981.079468 
	C669.059143,982.438232 650.954407,983.927307 633.875671,990.971558 
	C629.898987,992.611816 626.642944,994.157898 627.438416,999.474487 
	C627.988770,1003.152588 624.632751,1004.297424 622.047546,1005.001160 
	C611.013855,1008.004333 599.984863,1007.942261 589.185486,1003.799316 
	C581.043091,1000.675659 573.587463,995.759766 564.278198,995.902771 
	C554.502319,996.052917 545.542786,998.775146 537.031128,1003.165283 
	C533.915100,1004.772522 530.777405,1006.268066 527.553284,1007.613098 
	C524.644043,1008.826721 520.780273,1009.288879 522.892029,1014.186157 
	C523.172302,1014.836182 521.692383,1015.763245 522.219849,1017.100525 
	C525.131958,1020.242798 529.769409,1019.812561 533.546448,1021.766479 
	C532.616028,1023.853394 530.467041,1022.468018 529.074890,1023.620728 
	C531.604370,1023.982727 533.956970,1024.319458 536.654785,1024.828125 
	C502.979095,1025.000000 468.958221,1025.000000 434.468658,1025.000000 
M812.655579,637.781860 
	C812.085327,630.976868 811.305298,624.198853 809.530945,617.585999 
	C806.413574,605.967896 800.050903,597.079041 788.275513,592.948975 
	C779.761230,589.962708 770.995239,589.688354 762.131897,590.881531 
	C755.555359,591.766846 755.037598,591.326233 754.777161,584.608154 
	C753.835205,560.313843 752.596619,536.026489 752.019348,511.723511 
	C751.121460,473.921997 750.321167,436.123962 748.800598,398.336365 
	C747.638000,369.446136 741.919678,341.659027 728.599060,316.077148 
	C689.760193,241.487991 627.158875,202.600174 543.983704,196.574783 
	C511.652985,194.232681 480.291656,200.361786 450.310699,212.919312 
	C387.600677,239.185410 334.843475,278.855194 291.754852,331.330658 
	C264.227661,364.854645 244.999527,402.370392 237.671417,445.601288 
	C233.239838,471.744537 242.831573,486.919281 268.586121,492.923401 
	C282.019897,496.055176 295.691956,495.746796 309.332031,496.059906 
	C313.016083,496.144440 316.776245,496.002686 320.599792,497.545868 
	C318.458740,500.948792 315.561890,502.943878 312.960571,505.217621 
	C291.411011,524.053101 271.554993,544.282288 257.375732,569.555237 
	C233.680008,611.790466 226.447861,656.043640 241.164642,702.747437 
	C263.043518,772.180054 326.167633,822.450317 398.989105,828.537537 
	C431.748474,831.276001 463.382996,825.872681 493.681213,813.015625 
	C512.940491,804.842957 531.058044,794.647034 547.640930,781.856873 
	C550.773376,779.440796 552.849854,779.357727 555.522644,782.497009 
	C558.752625,786.290710 562.360046,789.804871 566.078186,793.133972 
	C586.009888,810.980408 609.042114,822.247192 635.876038,824.622925 
	C670.167603,827.658813 701.564819,818.627197 730.504089,800.512451 
	C756.871582,784.007629 778.757263,762.321167 799.770935,739.700073 
	C811.021606,727.588806 816.210205,713.144531 814.567688,696.640564 
	C812.649231,677.365417 813.006653,658.042419 812.655579,637.781860 
z"/>
<path fill="#000000" opacity="1.000000" stroke="none" 
	d="
M606.531372,1.000000 
	C604.466980,1.967825 602.677490,3.946134 600.597717,5.562718 
	C589.896423,13.880654 565.450806,17.887400 552.960999,3.894005 
	C551.180481,1.899187 548.717102,2.265067 546.324341,1.172999 
	C566.020874,1.000000 586.041809,1.000000 606.531372,1.000000 
z"/>
<path fill="#000000" opacity="1.000000" stroke="none" 
	d="
M596.344971,1021.085938 
	C604.826843,1021.221130 612.890381,1020.547729 620.851440,1022.587463 
	C610.316589,1022.587463 599.781738,1022.587463 588.708923,1022.587463 
	C591.330322,1021.403748 593.607483,1021.240601 596.344971,1021.085938 
z"/>
<path fill="#000000" opacity="1.000000" stroke="none" 
	d="
M779.614746,607.954102 
	C791.249756,611.602844 795.260986,616.454163 795.958801,629.862549 
	C796.641296,642.976501 796.216919,656.144409 796.526062,669.282837 
	C796.694214,676.429871 797.285645,683.572083 797.852417,690.703308 
	C798.501282,698.867493 798.868164,706.958496 796.462585,714.973083 
	C794.888367,720.218018 792.354065,724.758789 788.404602,728.541138 
	C777.212830,739.259277 767.655212,751.767761 755.435242,761.268799 
	C731.547363,779.841736 708.322937,800.757812 677.729065,806.966003 
	C630.551270,816.539490 591.026855,801.950867 560.623901,764.084229 
	C559.789734,763.045288 558.883850,762.028076 558.251953,760.869446 
	C556.290405,757.273010 554.088867,757.561646 551.042297,759.762573 
	C528.962524,775.713928 505.920929,790.117798 480.381897,799.862366 
	C426.211426,820.531311 373.170715,820.057983 323.652283,787.214539 
	C285.275421,761.760742 262.675201,724.722229 253.852814,679.851501 
	C243.869278,629.075012 257.382660,584.705444 292.980591,546.956421 
	C313.860077,524.815308 336.278473,504.514679 361.183380,486.994110 
	C362.399445,486.138641 363.513733,485.132812 364.626678,484.142273 
	C364.804840,483.983704 364.725220,483.535522 364.844696,482.585876 
	C359.426147,482.190247 354.035370,481.661621 348.631775,481.425232 
	C323.343323,480.318817 298.044983,479.423248 272.763123,478.187592 
	C258.434387,477.487305 250.560623,465.940643 253.018433,450.552185 
	C260.024048,406.689178 278.338684,368.288452 308.804077,335.969818 
	C342.185944,300.557281 378.155212,268.214081 420.696899,243.836670 
	C450.632019,226.683136 482.519043,216.036896 517.028503,213.535156 
	C561.273560,210.327667 603.037598,218.680008 641.144592,241.729996 
	C686.180786,268.971252 713.554199,309.484589 727.265869,359.806335 
	C730.795227,372.758942 731.757751,385.987122 732.304199,399.295776 
	C734.285828,447.561554 735.391541,495.850800 736.480530,544.143250 
	C736.915710,563.439819 738.429993,582.710754 739.336121,601.998901 
	C739.556763,606.694824 741.361816,609.133667 746.383484,608.697021 
	C752.682068,608.149353 759.027405,608.056274 765.299988,607.319458 
	C770.016052,606.765503 774.598877,607.046814 779.614746,607.954102 
M336.639038,586.092346 
	C335.308289,602.332092 336.372833,618.437683 340.936920,634.067017 
	C354.946960,682.042725 386.354462,713.955566 432.938080,730.719666 
	C464.830933,742.196899 497.443329,741.551880 529.605225,731.580444 
	C557.526855,722.923706 583.346802,710.075806 604.604736,689.305603 
	C607.800415,686.183289 611.429565,683.392029 615.209534,681.003540 
	C623.347900,675.861023 630.332336,677.441223 635.927795,685.305847 
	C636.793274,686.522461 637.526489,687.846558 638.208313,689.178528 
	C643.789856,700.082764 651.761780,708.897095 661.672058,716.000671 
	C681.254456,730.037170 703.208740,735.705017 727.129944,734.789856 
	C743.164795,734.176270 757.796265,729.632019 771.299927,720.911560 
	C778.753418,716.098206 782.357910,709.759949 781.777161,700.925598 
	C781.569763,697.770691 781.966431,694.560547 781.592224,691.434875 
	C779.287537,672.181091 780.035339,652.835022 779.686829,633.523621 
	C779.527527,624.696350 778.644897,623.676697 769.885986,624.002380 
	C761.074036,624.330017 752.267517,625.244507 743.462158,625.200439 
	C730.581238,625.136047 722.832642,618.124207 722.277771,606.763123 
	C722.180908,604.780579 722.569702,602.774963 722.481506,600.791260 
	C721.631165,581.664795 720.378906,562.549377 719.906372,543.414307 
	C718.738525,496.126312 717.920105,448.835266 716.022095,401.560486 
	C715.331726,384.365448 712.932922,367.796997 707.507751,351.610870 
	C683.794922,280.863129 622.295044,233.388397 545.131775,229.406372 
	C519.820679,228.100204 494.921967,231.039185 470.831024,239.290100 
	C443.780151,248.554733 418.769684,261.436798 397.609009,281.068726 
	C372.236938,304.607788 354.571442,332.986206 344.715729,366.103180 
	C341.691833,376.264160 339.085754,386.618439 338.081604,397.254578 
	C337.708649,401.205048 339.114929,403.536957 343.563232,403.762604 
	C375.820984,405.399017 408.070129,407.227264 440.369324,407.863342 
	C447.729431,408.008270 450.988800,404.788757 451.717316,397.570679 
	C452.454346,390.268738 454.223267,383.207428 457.460266,376.544861 
	C462.347900,366.484924 471.019073,360.109741 479.953796,354.361969 
	C502.199738,340.051056 526.762146,334.919586 552.946106,337.967194 
	C565.342651,339.410126 577.098572,343.223511 587.107910,350.965485 
	C607.851013,367.009949 613.375183,389.006683 599.208740,410.148560 
	C583.900024,432.995300 560.795227,443.626495 534.160461,446.182434 
	C515.632690,447.960419 496.958740,448.147095 478.614594,451.836395 
	C447.073883,458.179657 417.756592,470.199066 390.508820,487.095428 
	C369.457001,500.149597 354.848999,518.744690 345.950104,541.908813 
	C340.581848,555.882568 338.225464,570.424805 336.639038,586.092346 
M564.081787,420.560028 
	C572.572144,416.010864 579.882202,410.048706 585.337097,402.068390 
	C593.100464,390.710785 592.555847,380.629761 583.726196,370.171753 
	C577.750427,363.093872 570.092041,359.119354 561.142456,356.470734 
	C544.348999,351.500702 528.090515,352.566925 511.701752,357.891968 
	C507.508667,359.254395 507.285217,362.671783 506.700195,365.657867 
	C506.103760,368.702118 508.672668,370.459839 511.386169,371.229858 
	C515.212646,372.315674 519.172302,372.939026 522.985596,374.063354 
	C528.707764,375.750549 530.191528,378.334747 528.866882,384.106964 
	C527.862061,388.485992 526.803589,392.911316 523.350830,396.180786 
	C517.589111,401.636780 519.748596,407.463593 523.125366,412.221649 
	C526.202637,416.557922 529.518372,420.730621 532.469299,425.148926 
	C534.351196,427.966553 536.658447,429.175385 539.999756,428.872070 
	C548.466187,428.103577 556.042480,424.801575 564.081787,420.560028 
M453.115845,426.627075 
	C449.550720,429.881927 445.879242,433.029266 442.450989,436.422424 
	C439.152527,439.687164 435.877594,443.023834 432.666534,448.011627 
	C460.035645,437.608307 487.389069,432.837372 515.726013,430.418030 
	C513.013672,424.677582 508.898621,421.839996 504.675262,419.210205 
	C493.567413,412.293640 480.961090,412.175934 468.502625,411.506622 
	C466.353943,411.391174 464.777283,412.415009 463.606445,414.339874 
	C460.905273,418.780670 457.291779,422.485443 453.115845,426.627075 
M410.498505,433.343811 
	C409.302368,429.463715 406.943481,426.948486 402.637665,427.005798 
	C396.381592,427.088989 389.836823,426.293762 385.034332,431.721344 
	C383.874939,433.031616 383.858215,434.797913 383.964447,436.474304 
	C384.271484,441.317932 383.772369,446.048065 382.680573,450.797119 
	C381.407623,456.334106 384.443268,458.984467 389.648712,456.834381 
	C396.117737,454.162415 402.180878,450.692108 406.980896,445.435303 
	C409.887482,442.252106 411.779053,438.651337 410.498505,433.343811 
M324.157928,656.779541 
	C321.721222,654.670654 321.357147,656.729431 321.132904,658.417969 
	C320.705475,661.637024 321.455627,664.621460 323.012177,667.522400 
	C326.066223,673.214233 330.570374,678.442444 331.764343,684.744263 
	C333.267090,692.675964 338.587463,696.512390 344.622009,700.136536 
	C347.181335,701.673645 349.902924,702.938660 352.529938,704.365601 
	C354.271271,705.311462 356.174561,706.911865 357.946442,705.107422 
	C359.843140,703.175903 358.366669,700.894775 357.223328,699.202515 
	C354.807404,695.626648 352.006378,692.313293 349.425476,688.846008 
	C344.301697,681.962585 338.457123,675.634766 332.810364,669.241150 
	C329.496185,665.488586 325.776794,662.417358 324.157928,656.779541 
z"/>
<path fill="#000000" opacity="1.000000" stroke="none" 
	d="
M483.571106,532.522461 
	C503.889221,518.853394 525.676392,510.633728 549.997925,509.558716 
	C554.643127,509.353363 559.171509,508.909027 563.870850,509.554688 
	C577.428040,511.417389 585.390076,518.559875 588.191589,532.201477 
	C589.495422,538.550110 590.946533,544.890625 591.798157,551.305542 
	C593.900391,567.140625 587.207520,579.895203 576.761536,590.941528 
	C560.268250,608.382690 539.347107,618.277222 516.835083,625.380005 
	C501.227905,630.304260 485.427734,633.005310 469.215454,629.191223 
	C446.400574,623.823608 435.543091,603.661011 442.528595,581.228027 
	C447.906158,563.958679 460.570526,552.464417 473.092102,540.768250 
	C476.242188,537.825867 479.861847,535.386169 483.571106,532.522461 
M534.141724,564.649109 
	C530.328125,568.112610 526.634094,571.720703 522.668335,575.000122 
	C518.453796,578.485291 515.889954,582.087891 519.037964,587.708008 
	C520.056030,589.525574 520.187500,591.845764 520.691956,593.943909 
	C522.688293,602.247620 527.122864,604.479858 534.869751,600.851990 
	C543.488220,596.815918 551.353088,591.609497 558.787354,585.635559 
	C574.011353,573.402222 578.542236,558.019409 573.194092,539.438843 
	C571.635193,534.022949 569.488770,533.274414 565.239685,537.022095 
	C555.018188,546.037292 544.853516,555.116943 534.141724,564.649109 
M506.118500,604.139832 
	C505.536804,599.501587 504.695251,594.916321 502.733337,590.637512 
	C500.807922,586.438293 497.841614,583.483276 492.902649,583.322998 
	C482.011292,582.969543 471.332977,584.424438 460.784576,587.086365 
	C458.531555,587.654907 457.501587,588.748840 457.177429,591.117065 
	C455.786316,601.279419 459.879303,608.193604 469.533020,611.786194 
	C479.750977,615.588745 490.031067,614.850342 500.510254,612.922729 
	C505.542603,611.997070 507.683380,610.029968 506.118500,604.139832 
M538.575989,527.231934 
	C519.714539,530.499390 502.664703,537.848633 487.782166,549.968628 
	C485.970184,551.444275 483.201721,552.724609 484.077789,555.847046 
	C485.019958,559.205078 487.616241,561.364136 490.889221,561.661621 
	C495.223816,562.055603 499.424530,562.900757 503.595917,563.968933 
	C507.903351,565.071777 511.244965,563.653992 514.418091,560.774719 
	C524.135193,551.957581 534.036011,543.342163 543.713867,534.482849 
	C545.873596,532.505859 550.426758,530.629517 548.646240,527.488037 
	C546.979675,524.547546 542.616089,526.512695 538.575989,527.231934 
z"/>
</svg>